<svg xmlns="http://www.w3.org/2000/svg" version="1.1" xmlns:xlink="http://www.w3.org/1999/xlink" xmlns:svgjs="http://svgjs.dev/svgjs" width="2000" height="1247" viewBox="0 0 2000 1247"><g transform="matrix(1,0,0,1,-1.2121212121212466,0.5048582995952984)"><svg viewBox="0 0 396 247" data-background-color="#ffffff" preserveAspectRatio="xMidYMid meet" height="1247" width="2000" xmlns="http://www.w3.org/2000/svg" xmlns:xlink="http://www.w3.org/1999/xlink"><g id="tight-bounds" transform="matrix(1,0,0,1,0.2400000000000091,-0.09999999999999432)"><svg viewBox="0 0 395.52 247.2" height="247.2" width="395.52"><g><svg></svg></g><g><svg viewBox="0 0 395.52 247.2" height="247.2" width="395.52"><g transform="matrix(1,0,0,1,75.54432,80.63898535104363)"><svg viewBox="0 0 244.43135999999998 85.92202929791272" height="85.92202929791272" width="244.43135999999998"><g><svg viewBox="0 0 244.43135999999998 85.92202929791272" height="85.92202929791272" width="244.43135999999998"><g><svg viewBox="0 0 244.43135999999998 85.92202929791272" height="85.92202929791272" width="244.43135999999998"><g><svg viewBox="0 0 244.43135999999998 85.92202929791272" height="85.92202929791272" width="244.43135999999998"><g id="textblocktransform"><svg viewBox="0 0 244.43135999999998 85.92202929791272" height="85.92202929791272" width="244.43135999999998" id="textblock"><g><svg viewBox="0 0 244.43135999999998 85.92202929791272" height="85.92202929791272" width="244.43135999999998"><g transform="matrix(1,0,0,1,0,0)"><svg width="244.43135999999998" viewBox="1.8 -36.35 105.4 37.050000000000004" height="85.92202929791272" data-palette-color="#096a2e"><path d="M13.6 0.7L13.6 0.7Q6.45 0.7 3.7-2.4L3.7-2.4Q1.8-4.6 1.8-8.55L1.8-8.55Q1.8-10.25 2.15-12.2L2.15-12.2 4.2-23.7Q6.45-36.35 20.45-36.35L20.45-36.35Q26.25-36.35 29.25-33.88 32.25-31.4 32.25-27.1L32.25-27.1Q32.25-25.1 31.68-23.13 31.1-21.15 30.55-20.2L30.55-20.2 30-19.2 21.15-19.2Q22.8-21.1 22.8-24.6L22.8-24.6Q22.8-26.45 21.85-27.53 20.9-28.6 19.05-28.6L19.05-28.6Q14-28.6 13.05-23L13.05-23 11.3-12.9Q11.05-11.6 11.05-10.35L11.05-10.35Q11.05-7.05 15-7.05L15-7.05Q19.75-7.05 20.7-12.4L20.7-12.4 29.7-12.4 29.45-10.95Q27.45 0.7 13.6 0.7ZM39.65-36L49.05-36 54.4-18.75 65.9-36 75.35-36 69 0 59.95 0 63.55-20.3 55.85-8.2 49.3-8.2 45.9-20.3 42.3 0 33.3 0 39.65-36ZM85.65-10.25L85.65-10.25Q85.65-6.8 90.62-6.8 95.6-6.8 95.6-9.9L95.6-9.9Q95.6-11.55 93.9-12.6 92.2-13.65 89.77-14.35 87.35-15.05 84.92-15.98 82.5-16.9 80.8-18.88 79.1-20.85 79.1-23.8L79.1-23.8Q79.1-36.35 95.25-36.35L95.25-36.35Q101.15-36.35 104.17-34.13 107.2-31.9 107.2-27.95L107.2-27.95Q107.2-26.5 106.82-25.18 106.45-23.85 106.05-23.3L106.05-23.3 105.65-22.7 96.8-22.7Q97.9-23.85 97.9-25.6L97.9-25.6Q97.9-28.85 93.65-28.85L93.65-28.85Q88.3-28.85 88.3-25.45L88.3-25.45Q88.3-23.75 90-22.75 91.7-21.75 94.12-21.18 96.55-20.6 99-19.75 101.45-18.9 103.15-16.93 104.85-14.95 104.85-11.8L104.85-11.8Q104.85-5.45 101.05-2.38 97.25 0.7 89.35 0.7 81.45 0.7 78.55-2.1L78.55-2.1Q76.4-4.2 76.4-7.9L76.4-7.9Q76.4-9.3 76.7-10.95L76.7-10.95 76.85-11.75 85.85-11.75 85.75-11.15Q85.65-10.65 85.65-10.25Z" opacity="1" transform="matrix(1,0,0,1,0,0)" fill="#096a2e" class="wordmark-text-0" data-fill-palette-color="primary" id="text-0"></path></svg></g></svg></g></svg></g></svg></g></svg></g></svg></g></svg></g><g><path d="M245.816 0c68.262 0 123.6 55.338 123.6 123.6 0 68.262-55.338 123.6-123.6 123.6-49.254 0-91.779-28.81-111.643-70.497l4.308 0c19.57 39.481 60.283 66.623 107.335 66.623 66.123 0 119.726-53.603 119.725-119.726 0-66.123-53.603-119.726-119.725-119.726-47.052 0-87.764 27.142-107.335 66.623l-4.308 0c19.864-41.687 62.389-70.497 111.643-70.497z" fill="#096a2e" stroke="transparent" data-fill-palette-color="tertiary"></path></g></svg></g><defs></defs></svg><rect width="395.52" height="247.2" fill="none" stroke="none" visibility="hidden"></rect></g></svg></g></svg>